# xmcd
#
# Track frame offsets:
#	150
#	9002
#	17800
#	31265
#	39947
#	53422
#	60305
#	69270
#	84722
#	93435
#	112575
#	130835
#	143005
#	150940
#	161092
#	181310
#	195252
#	205382
#	213192
#	227210
#	237785
#	245657
#	259640
#	268670
#	277112
#	285400
#
# Disc length: 4445 seconds
#
# Revision: 1
# Processed by: cddbd v1.4PL0 Copyright (c) Steve Scherf et al.
# Submitted via: audiograbber 1.80
#
DISCID=4b115b1a
DTITLE=dick curless - a tomstone every mile disc 1
DYEAR=1900
DGENRE=
TTITLE0=coast of maine 1950
TTITLE1=ida dance (instrumental) 1950
TTITLE2=jelly doughnuts 1950
TTITLE3=fiddler's dance (instumental) 1950
TTITLE4=cottage in the pines 1965
TTITLE5=cupid's arrow (1) 1965
TTITLE6=baby darling 1996
TTITLE7=naponee 1996
TTITLE8=rock mountain queen 1996
TTITLE9=streets of laredo (1) 1956
TTITLE10=foggy foggy dew 1956
TTITLE11=china nights (3) 1957
TTITLE12=blues in my mind (2) 1958
TTITLE13=lovin' dan-sixty minute man 1965
TTITLE14=blue yodel #6 (midnight turning blues) 1965
TTITLE15=bright lights and blonde haired women (i'm getting tired) 1965
TTITLE16=travelin' man 1965
TTITLE17=i'm ragged but i'm right 1996
TTITLE18=st. james infirmary 1965
TTITLE19=you never miss the water (till the well runs dry) 1965
TTITLE20=rosalita 1996
TTITLE21=just a closer walk with thee 1996
TTITLE22=please don't pass me by 1996
TTITLE23=nine pound hammer (1) 1957
TTITLE24=rock mountain queen (with overdub) 1965
TTITLE25=dick curless/al hawkes on the first event release 1996
EXTD=
EXTT0=
EXTT1=
EXTT2=
EXTT3=
EXTT4=
EXTT5=
EXTT6=
EXTT7=
EXTT8=
EXTT9=
EXTT10=
EXTT11=
EXTT12=
EXTT13=
EXTT14=
EXTT15=
EXTT16=
EXTT17=
EXTT18=
EXTT19=
EXTT20=
EXTT21=
EXTT22=
EXTT23=
EXTT24=
EXTT25=
PLAYORDER=
